# xmcd
#
# Track frame offsets: 
#        150
#        19680
#        34915
#        51245
#        65292
#        81815
#        96432
#        111947
#        127762
#        147477
#        165632
#        185840
#        201057
#        215130
#
# Disc length: 3002 seconds
#
# Revision: 4
# Processed by: cddbd v1.5.2PL0 Copyright (c) Steve Scherf et al.
# Submitted via: ExactAudioCopy v1.0b3
#
DISCID=ce0bb80e
DTITLE=Lisa Ono - Naima -Meu Anjo-
DYEAR=2004
DGENRE=Bossa Nova
TTITLE0=Ominira
TTITLE1=Sabah Wu Massa
TTITLE2=Malaika
TTITLE3=Wihyaat 'Inayya
TTITLE4=Nkosi Sikelel 'Iafrica
TTITLE5=Tahiti Yasmin Fillil
TTITLE6=Le Mouni Li Gharou Menni
TTITLE7=Mustafa
TTITLE8=Uskudar
TTITLE9=Labita
TTITLE10=Naima
TTITLE11=Luzir
TTITLE12=Oxum
TTITLE13=Aqua De Viver
EXTD=YEAR: 2004
EXTT0=
EXTT1=
EXTT2=
EXTT3=
EXTT4=
EXTT5=
EXTT6=
EXTT7=
EXTT8=
EXTT9=
EXTT10=
EXTT11=
EXTT12=
EXTT13=
PLAYORDER=
